<?xml version="1.0" encoding="utf-8"?>
<!-- Generator: Adobe Illustrator 18.1.1, SVG Export Plug-In . SVG Version: 6.00 Build 0)  -->
<svg version="1.1" id="Layer_1" xmlns="http://www.w3.org/2000/svg" xmlns:xlink="http://www.w3.org/1999/xlink" x="0px" y="0px"
	 viewBox="0 0 73 73" enable-background="new 0 0 73 73" xml:space="preserve">
<rect x="0.2" y="0" fill="#5EADBF" width="72.8" height="73"/>
<polygon fill="#141414" points="0,41.4 0,73 73,73 73,42.9 69.2,42.6 68.2,41.2 63.1,41.2 61.2,40 58.1,38.9 50.3,41.4 46.7,40 
	45,40.3 42.1,38 37,40 34.5,40 32.4,40.3 29.3,41.7 24.6,39.4 23.2,39.2 21.3,37.2 14.7,40.6 12.6,39.7 10.7,40.6 7.4,39.2 
	5.7,40.9 "/>
<path fill-rule="evenodd" clip-rule="evenodd" fill="#FFFFFF" d="M61.4,9.9c2.9,2.6,3.7,7.3,1.9,11.6c-2.2,5.2-7.7,7.8-12.2,6
	c0.4,0.3,0.9,0.5,1.4,0.7c5.2,2.2,11.1-0.2,13.4-5.3C68,18,66,12.4,61.4,9.9"/>
</svg>
